<svg width="64" height="64" viewBox="0 0 64 64" fill="none" xmlns="http://www.w3.org/2000/svg">
<g clip-path="url(#clip0_416_493)">
<path d="M0 8.85894C0.607392 7.04459 1.91454 6.4732 3.75706 6.47633C22.5726 6.5066 41.3877 6.51286 60.2022 6.49512C60.4511 6.49512 60.7016 6.48729 60.9505 6.49512C62.6647 6.57652 63.8638 7.7913 63.8857 9.51016C63.9061 11.193 63.8857 12.879 63.8857 14.5618V46.9415C63.8857 49.2521 62.7461 50.398 60.4417 50.3995H41.2009L41.6267 51.918C41.9038 52.8964 42.2059 53.8686 42.4439 54.8579C42.566 55.3636 42.7726 55.5639 43.3221 55.5389C44.4429 55.4904 45.5669 55.5201 46.6893 55.5264C47.436 55.5264 47.8603 55.8629 47.8744 56.4343C47.8885 57.0057 47.4376 57.3971 46.6674 57.3971C36.8573 57.3971 27.0472 57.3971 17.2371 57.3971C16.3166 57.3971 15.7969 56.7818 16.1084 56.0852C16.3025 55.6453 16.6782 55.5217 17.1291 55.5232C18.3564 55.5232 19.5821 55.5358 20.8094 55.5107C20.9848 55.5107 21.2791 55.3542 21.3135 55.2195C21.7831 53.6541 22.223 52.073 22.6974 50.3995H21.9146C15.8642 50.3995 9.81376 50.3667 3.76489 50.4183C1.93019 50.434 0.621481 49.8454 0.00782721 48.0451L0 8.85894ZM32.0086 8.36895H3.56451C2.15561 8.36895 1.87384 8.6523 1.87384 10.0377V46.846C1.87384 48.2392 2.15875 48.5241 3.55669 48.5241H60.3212C61.7301 48.5241 62.0119 48.2392 62.0119 46.8538V10.044C62.0119 8.65386 61.7254 8.36895 60.3275 8.36895H32.0086ZM40.6921 55.4888C40.2225 53.8529 39.7795 52.2561 39.2957 50.6735C39.255 50.5404 38.9607 50.4089 38.7823 50.4074C37.2669 50.3854 35.75 50.3948 34.2331 50.3948C31.2196 50.3948 28.2061 50.3948 25.1942 50.4058C24.9892 50.4058 24.6416 50.5138 24.6009 50.6453C24.1078 52.2436 23.6617 53.8545 23.192 55.4888H40.6921Z" fill="#7f00b2"/>
<path d="M31.9429 10.4885H58.391C59.6309 10.4885 59.8892 10.7453 59.8892 11.9867V44.9283C59.8892 46.1258 59.6199 46.3951 58.4208 46.3951H5.4634C4.26584 46.3951 3.99658 46.1243 3.99658 44.9267V11.9272C3.99658 10.7734 4.2768 10.4932 5.43366 10.4932L31.9429 10.4885ZM5.8892 44.4727H57.9777V20.4181H5.8892V44.4727ZM5.8892 18.4394H57.9746V12.4203H5.8892V18.4394Z" fill="#7f00b2"/>
<path d="M17.6427 32.389C16.9743 31.7488 16.3231 31.1367 15.6906 30.5105C14.3177 29.1501 12.9542 27.7788 11.5892 26.4106C11.4375 26.2678 11.3002 26.1105 11.179 25.941C11.0638 25.768 11.0111 25.5608 11.0298 25.3538C11.0485 25.1468 11.1374 24.9523 11.2818 24.8028C11.4263 24.6533 11.6174 24.5577 11.8237 24.5318C12.0299 24.5059 12.2388 24.5513 12.4157 24.6604C12.5882 24.7742 12.7459 24.9088 12.8854 25.0612C15.0352 27.2038 17.1815 29.3489 19.324 31.4967C20.0614 32.2356 20.0598 32.6411 19.3146 33.3862C17.171 35.534 15.0253 37.6797 12.8775 39.8233C12.721 39.9799 12.5347 40.2303 12.3531 40.2397C11.9946 40.2554 11.561 40.2397 11.2808 40.0456C10.9333 39.8108 10.9113 39.36 11.1493 38.9764C11.2786 38.7888 11.4282 38.6161 11.5954 38.4614C13.4301 36.6204 15.2659 34.7816 17.1027 32.9448C17.2639 32.7961 17.4142 32.6301 17.6427 32.389Z" fill="#7f00b2"/>
<path d="M26.0177 38.5193C27.5133 38.5193 29.0083 38.5193 30.5027 38.5193C30.7297 38.5193 31.0193 38.4645 31.1712 38.5803C31.442 38.7854 31.73 39.0703 31.824 39.3772C31.9476 39.7904 31.6956 40.1505 31.2698 40.2945C31.0317 40.365 30.7839 40.3972 30.5356 40.39C27.4632 40.3963 24.3902 40.3963 21.3167 40.39C21.2338 40.39 21.1508 40.39 21.0678 40.39C20.4182 40.3383 20.0252 39.9924 20.0158 39.4633C20.0049 38.9091 20.4135 38.524 21.0976 38.524C22.7366 38.5099 24.3772 38.5193 26.0177 38.5193Z" fill="#7f00b2"/>
<path d="M33.917 16.3682H19.5149C19.2867 16.3747 19.0582 16.368 18.8308 16.3479C18.6237 16.3233 18.4314 16.2282 18.2862 16.0786C18.141 15.9289 18.0517 15.7339 18.0333 15.5262C18.0149 15.3185 18.0686 15.1108 18.1854 14.938C18.3021 14.7652 18.4747 14.6379 18.6742 14.5773C18.8943 14.5193 19.1214 14.4925 19.3489 14.4975C29.0797 14.4975 38.81 14.4975 48.5398 14.4975C48.7671 14.4922 48.9941 14.518 49.2145 14.5742C49.4212 14.6202 49.6031 14.7424 49.7238 14.9165C49.8445 15.0905 49.8952 15.3037 49.8657 15.5135C49.8621 15.7247 49.7799 15.9271 49.6352 16.0811C49.4905 16.235 49.2936 16.3296 49.083 16.3463C48.8556 16.3677 48.6271 16.375 48.3989 16.3682H33.917Z" fill="#7f00b2"/>
<path d="M53.9937 16.3541C53.6227 16.3541 53.2486 16.3776 52.8791 16.3541C52.6578 16.3537 52.4454 16.2664 52.2879 16.1109C52.1303 15.9554 52.0402 15.7442 52.0369 15.5229C51.9947 15.0266 52.2389 14.6165 52.7288 14.5836C53.5483 14.5171 54.3718 14.5171 55.1913 14.5836C55.6609 14.6227 55.891 15.0344 55.8644 15.49C55.8674 15.7117 55.7837 15.9259 55.631 16.0867C55.4784 16.2476 55.2689 16.3424 55.0473 16.351C54.6982 16.3823 54.3459 16.351 53.9937 16.351V16.3541Z" fill="#7f00b2"/>
<path d="M9.86219 15.4555C9.85767 15.6965 9.75865 15.9261 9.58647 16.0947C9.41429 16.2634 9.18273 16.3577 8.94171 16.3572C8.69923 16.3574 8.46607 16.2639 8.29101 16.0961C8.11594 15.9283 8.01254 15.6994 8.00244 15.4571C8.01204 15.207 8.11727 14.9701 8.29641 14.7954C8.47555 14.6206 8.71494 14.5212 8.96519 14.5178C9.20663 14.5287 9.43459 14.6322 9.60165 14.8069C9.76871 14.9815 9.86203 15.2138 9.86219 15.4555Z" fill="#7f00b2"/>
<path d="M11.9645 14.5117C12.2054 14.5238 12.4324 14.628 12.5985 14.8029C12.7646 14.9777 12.8571 15.2098 12.8568 15.451C12.8563 15.5756 12.8302 15.6988 12.78 15.813C12.7299 15.9271 12.6568 16.0297 12.5653 16.1144C12.4739 16.1991 12.366 16.2641 12.2484 16.3054C12.1307 16.3466 12.0059 16.3633 11.8816 16.3542C11.641 16.3397 11.4156 16.232 11.2531 16.054C11.0906 15.8761 11.0038 15.6418 11.0112 15.4009C11.032 15.161 11.141 14.9374 11.3171 14.7732C11.4932 14.609 11.7238 14.5158 11.9645 14.5117Z" fill="#7f00b2"/>
<path d="M14.9298 16.3574C14.6887 16.3527 14.4587 16.2555 14.2874 16.0859C14.116 15.9163 14.0165 15.6873 14.0093 15.4463C14.0207 15.2059 14.1194 14.978 14.2868 14.8051C14.4542 14.6322 14.6789 14.5262 14.9188 14.5071C15.0437 14.5071 15.1674 14.532 15.2826 14.5803C15.3978 14.6287 15.5022 14.6996 15.5897 14.7888C15.6772 14.878 15.746 14.9838 15.792 15.0999C15.8381 15.2161 15.8606 15.3402 15.8581 15.4651C15.8531 15.7065 15.7526 15.9361 15.5785 16.1034C15.4045 16.2707 15.1711 16.362 14.9298 16.3574Z" fill="#7f00b2"/>
</g>
<defs>
<clipPath id="clip0_416_493">
<rect width="64" height="64" fill="white"/>
</clipPath>
</defs>
</svg>
