<svg width="64" height="64" viewBox="0 0 64 64" fill="none" xmlns="http://www.w3.org/2000/svg">
<g clip-path="url(#clip0_416_527)">
<path d="M18.4721 64C17.3246 63.7276 16.2632 63.2971 15.4461 62.3954C14.4708 61.3184 14.1186 60.0316 14.1201 58.6117C14.1201 51.2917 14.1201 43.9712 14.1201 36.6501C14.1201 26.2525 14.1201 15.8543 14.1201 5.45556C14.1201 3.30464 14.942 1.59204 16.9379 0.648081C17.6526 0.317339 18.4297 0.142824 19.2172 0.136181C27.7864 0.100698 36.3567 0.0954798 44.928 0.120527C47.8773 0.120527 49.9375 2.22448 50.0267 5.20665C50.0267 5.30997 50.0267 5.41485 50.0267 5.51974C50.0267 23.2176 50.0267 40.9155 50.0267 58.6133C50.0267 60.7893 49.2017 62.4909 47.1979 63.4897C46.7283 63.726 46.1851 63.8341 45.6748 64.0016L18.4721 64ZM16.0284 18.0135V54.0892H48.1028V18.0135H16.0284ZM15.9924 56.0303C15.9924 57.0119 15.9924 57.9245 15.9924 58.8356C15.9955 59.0454 16.0138 59.2546 16.0472 59.4618C16.2757 60.9881 17.4232 62.1089 18.9652 62.1136C27.7003 62.1387 36.435 62.1387 45.1691 62.1136C46.5373 62.1136 47.7693 61.1744 47.9869 59.886C48.1936 58.6337 48.1435 57.339 48.2045 56.035L15.9924 56.0303ZM48.0934 8.08394C48.0934 6.89263 48.1795 5.76708 48.073 4.65875C48.0163 3.93116 47.685 3.25236 47.1463 2.75995C46.6077 2.26753 45.902 1.99832 45.1722 2.00689C36.4371 1.98079 27.7024 1.98079 18.9683 2.00689C17.6017 2.00689 16.3681 2.94615 16.1505 4.23451C15.9454 5.48687 15.994 6.78149 15.9345 8.0855L48.0934 8.08394ZM48.1168 10.0376H16.0347V16.0614H48.1168V10.0376Z" fill="#7f00b2"/>
<path d="M25.9942 48.0967C25.9942 48.7417 26.013 49.3867 25.9942 50.0301C25.9504 51.2057 25.1958 51.9728 24.0155 51.9978C22.7271 52.0276 21.4357 52.0244 20.1473 51.9978C18.9701 51.9743 18.1748 51.2151 18.1373 50.0488C18.0955 48.7193 18.0955 47.3891 18.1373 46.0585C18.178 44.8829 18.9701 44.1534 20.1583 44.1362C21.4482 44.1174 22.7376 44.1174 24.0265 44.1362C25.2146 44.1565 25.9535 44.9001 25.9958 46.0977C26.0146 46.7645 25.9942 47.433 25.9942 48.0967ZM24.0891 46.0507H20.0502V50.0942H24.0891V46.0507Z" fill="#7f00b2"/>
<path d="M38.1543 48.0418C38.1543 47.3546 38.1261 46.6673 38.1543 45.9832C38.2091 44.8984 38.9511 44.1673 40.0438 44.1438C41.3744 44.1157 42.7051 44.1172 44.0372 44.1438C45.18 44.1626 45.9627 44.9031 46.0019 46.0553C46.0473 47.3843 46.0457 48.7165 46.0019 50.0471C45.9659 51.2196 45.1738 51.9773 43.9981 52.0024C42.7092 52.0285 41.4198 52.0285 40.1299 52.0024C38.9464 51.9758 38.1888 51.2196 38.1449 50.0409C38.1199 49.3756 38.1449 48.7102 38.1449 48.0449L38.1543 48.0418ZM44.103 50.0957V46.0615H40.0751V50.0941L44.103 50.0957Z" fill="#7f00b2"/>
<path d="M32.0742 44.1454C32.7614 44.1454 33.4486 44.1235 34.1327 44.1454C35.1409 44.1846 35.9142 44.8374 35.9612 45.8377C36.03 47.3092 36.0316 48.7885 35.9612 50.2601C35.9158 51.2729 35.1315 51.9633 34.0826 51.9914C32.7322 52.0311 31.3807 52.0311 30.0281 51.9914C28.9652 51.9586 28.2013 51.2478 28.1496 50.1912C28.087 48.7823 28.0854 47.3624 28.1496 45.952C28.1966 44.8483 28.9652 44.1752 30.0673 44.1392C30.7326 44.1188 31.3979 44.1392 32.0632 44.1392L32.0742 44.1454ZM34.092 50.1082V46.0381H30.0563V50.1082H34.092Z" fill="#7f00b2"/>
<path d="M27.7601 31.06L21.7848 25.0956C21.0631 24.3755 20.9551 23.8542 21.4263 23.3956C21.8975 22.9369 22.4016 23.0653 23.128 23.7916C25.2298 25.8925 27.3312 27.9933 29.432 30.0941C30.1944 30.8549 30.1912 31.2604 29.432 32.0274C27.2978 34.1575 25.1641 36.287 23.0309 38.416C22.8906 38.5689 22.733 38.705 22.5613 38.8215C22.387 38.9337 22.1796 38.983 21.9734 38.9613C21.7673 38.9396 21.5747 38.848 21.4277 38.7019C21.2806 38.5558 21.1879 38.3638 21.1649 38.1578C21.1419 37.9518 21.1899 37.7441 21.3011 37.5691C21.431 37.3816 21.5818 37.2093 21.7504 37.0556C23.7338 35.0738 25.7188 33.0951 27.7601 31.06Z" fill="#7f00b2"/>
<path d="M36.0866 37.1307H40.8205C41.2557 37.1307 41.6565 37.1918 41.8866 37.6223C41.9521 37.7408 41.9901 37.8725 41.9977 38.0076C42.0054 38.1428 41.9825 38.278 41.9308 38.4031C41.879 38.5282 41.7998 38.6401 41.6989 38.7304C41.598 38.8207 41.4781 38.8871 41.3481 38.9247C41.1266 38.9804 40.8986 39.0057 40.6702 38.9999C37.5968 38.9999 34.5233 38.9999 31.4498 38.9999C31.3668 38.9999 31.2839 38.9999 31.2009 38.9999C30.5105 38.9466 30.1348 38.5897 30.1599 38.0152C30.1849 37.4657 30.5465 37.1432 31.2275 37.137C32.8462 37.1213 34.4664 37.1307 36.0866 37.1307Z" fill="#7f00b2"/>
<path d="M32.0711 58.1312C32.7129 58.1312 33.3563 58.1156 33.9966 58.1312C34.5993 58.1484 34.9672 58.5007 34.9828 59.0267C34.9985 59.5526 34.6212 59.9784 33.995 59.9894C32.7134 60.0113 31.4298 60.0113 30.144 59.9894C29.5178 59.9784 29.1406 59.5746 29.1594 59.0251C29.175 58.4991 29.5429 58.1484 30.1456 58.1312C30.7874 58.1171 31.4293 58.1312 32.0711 58.1312Z" fill="#7f00b2"/>
<path d="M32.0415 5.98463C31.1023 5.98463 30.1739 5.99246 29.2409 5.98463C28.5553 5.9768 28.153 5.62145 28.1451 5.05632C28.1373 4.4912 28.5506 4.11706 29.2315 4.11706C31.1195 4.10454 33.0074 4.10454 34.8953 4.11706C35.5779 4.11706 35.9911 4.49276 35.9911 5.05632C35.9911 5.61988 35.5872 5.97994 34.9031 5.99559C33.9498 5.99246 32.9949 5.98463 32.0415 5.98463Z" fill="#7f00b2"/>
<path d="M25.0753 5.97521C24.8344 5.97259 24.6038 5.87756 24.4311 5.70975C24.2583 5.54194 24.1566 5.31417 24.147 5.07351C24.1486 4.82388 24.2477 4.58476 24.4232 4.40722C24.5987 4.22968 24.8366 4.12778 25.0862 4.12329C25.3266 4.13613 25.5528 4.24072 25.7182 4.4155C25.8837 4.59027 25.9758 4.82189 25.9754 5.06256C25.9726 5.3016 25.8773 5.53026 25.7094 5.70046C25.5416 5.87066 25.3143 5.96915 25.0753 5.97521Z" fill="#7f00b2"/>
<path d="M32.01 13.981H24.5867C24.3778 13.9883 24.1686 13.982 23.9605 13.9623C23.7495 13.9368 23.554 13.8385 23.4077 13.6843C23.2614 13.53 23.1736 13.3296 23.1593 13.1175C23.145 12.9055 23.2052 12.695 23.3295 12.5226C23.4537 12.3502 23.6343 12.2265 23.84 12.173C24.0833 12.1217 24.3319 12.1002 24.5804 12.1088C29.5293 12.1088 34.4782 12.1088 39.4271 12.1088C39.532 12.1088 39.6353 12.1088 39.7402 12.1088C40.4634 12.137 40.8845 12.5033 40.8657 13.0841C40.847 13.6648 40.4525 13.9779 39.7433 13.9795C37.1666 13.9847 34.5888 13.9852 32.01 13.981Z" fill="#7f00b2"/>
<path d="M19.5366 13.973C19.3707 13.973 19.2032 13.9824 19.0372 13.973C18.4987 13.9323 18.1825 13.6193 18.159 13.1011C18.1452 12.9866 18.1546 12.8706 18.1869 12.7599C18.2191 12.6492 18.2734 12.5462 18.3466 12.4571C18.4198 12.368 18.5102 12.2946 18.6125 12.2415C18.7148 12.1883 18.8268 12.1564 18.9417 12.1477C19.3325 12.093 19.7286 12.0882 20.1205 12.1336C20.6825 12.1947 20.9956 12.5814 20.9737 13.098C20.9518 13.6146 20.6042 13.9355 20.0344 13.9746C19.8685 13.9856 19.701 13.9746 19.535 13.9746L19.5366 13.973Z" fill="#7f00b2"/>
<path d="M44.5385 13.9905C44.3319 13.9795 44.0689 14.0453 43.928 13.9435C43.64 13.7275 43.3018 13.4629 43.197 13.1467C43.1635 13.0463 43.1527 12.9398 43.1652 12.8347C43.1777 12.7296 43.2133 12.6286 43.2694 12.5389C43.3255 12.4491 43.4007 12.3729 43.4896 12.3156C43.5786 12.2583 43.6791 12.2214 43.784 12.2074C44.2509 12.119 44.7286 12.1016 45.2007 12.1558C45.7236 12.2106 46.0194 12.5831 45.9834 13.1076C45.9474 13.632 45.6328 13.9372 45.0958 13.9732C44.9095 13.9873 44.7217 13.9732 44.5338 13.9732L44.5385 13.9905Z" fill="#7f00b2"/>
</g>
<defs>
<clipPath id="clip0_416_527">
<rect width="64" height="64" fill="white"/>
</clipPath>
</defs>
</svg>
