<svg width="64" height="64" viewBox="0 0 64 64" fill="none" xmlns="http://www.w3.org/2000/svg">
<g clip-path="url(#clip0_416_510)">
<path d="M63.9998 52.5221C63.7321 53.6946 63.286 54.7669 62.3577 55.5935C61.2885 56.5437 60.0236 56.8834 58.6241 56.8818C44.7355 56.8818 30.8469 56.8818 16.9583 56.8818C13.0916 56.8818 9.22497 56.8818 5.35676 56.8818C3.24811 56.8818 1.58561 56.0271 0.660431 54.0859C0.321087 53.3494 0.14385 52.5487 0.140704 51.7378C0.11357 38.5359 0.109917 25.3345 0.129746 12.1336C0.131311 9.07945 2.28693 6.99742 5.41938 6.99585C15.815 6.99585 26.2105 6.99585 36.6061 6.99585C43.9668 6.99585 51.3244 6.99585 58.6789 6.99585C60.4729 6.99585 62.0148 7.57037 63.0324 9.08885C63.4801 9.75886 63.6789 10.5948 63.992 11.3556L63.9998 52.5221ZM62.1213 16.9145H1.99732V17.6487C1.99732 28.9199 1.99732 40.1911 1.99732 51.4623C1.99732 53.8104 3.21054 55.0142 5.58218 55.0142H58.5474C60.9441 55.0142 62.1322 53.8167 62.1322 51.3996V16.9145H62.1213ZM62.1072 14.9671C62.1072 13.8384 62.162 12.7755 62.0947 11.7251C61.9835 9.9655 60.6263 8.86655 58.6507 8.86655C40.9205 8.86655 23.1892 8.86655 5.45695 8.86655C5.14593 8.85856 4.83489 8.88216 4.52864 8.937C3.21993 9.20312 2.28849 9.98271 2.11003 11.2977C1.95349 12.4921 2.07559 13.7257 2.07559 14.964L62.1072 14.9671Z" fill="#7f00b2"/>
<path d="M30.1207 35.0079V33.1153C30.1207 31.2023 30.1207 29.2893 30.1207 27.3779C30.1207 25.1597 31.2729 24.0169 33.5068 23.9887C33.6899 23.9887 33.8747 23.9731 34.0735 23.9653C34.1533 23.6177 34.2003 23.289 34.3036 22.9806C34.7231 21.7189 35.8236 20.9956 37.3656 20.9941C42.8342 20.9857 48.3023 20.9857 53.7699 20.9941C54.3095 20.9802 54.8495 20.9985 55.387 21.0488C56.8804 21.2289 57.9105 22.3356 57.9887 23.8432C58.0263 24.5701 58.0263 25.2985 57.9887 26.0254C57.9073 27.6096 56.788 28.7524 55.2069 28.8432C54.2536 28.8948 53.2955 28.8698 52.3391 28.8698C47.3703 28.8698 42.4016 28.8698 37.4329 28.8698C35.7594 28.8698 34.684 28.1513 34.2645 26.7862C34.2519 26.7455 34.2191 26.7079 34.2222 26.6703C34.2691 25.9142 33.8308 25.8031 33.2093 25.8688C32.4548 25.9456 32.029 26.2586 32.0227 26.9647C31.9977 29.5836 32.0227 32.2026 32.0227 34.8216C32.0227 34.8592 32.0556 34.8968 32.1104 35.0126C32.6677 35.0126 33.2657 35.0283 33.8621 34.9985C33.9655 34.9985 34.1204 34.8107 34.1517 34.6854C34.6214 32.7317 35.5184 32.0132 37.5253 32.0116C41.4545 32.0116 45.3838 32.0116 49.3131 32.0116C51.0585 32.0116 52.8056 32.0116 54.551 32.0116C56.8679 32.0116 58.0044 33.1482 58.0075 35.4556C58.0075 35.8501 58.0075 36.2383 58.0075 36.6407C57.9981 38.6867 56.8053 39.8921 54.7467 39.9015C52.0448 39.914 49.3412 39.9015 46.6393 39.9015C43.6034 39.9015 40.568 39.9015 37.5331 39.9015C35.5419 39.9015 34.6339 39.1673 34.147 37.2246C34.1087 37.1431 34.0513 37.072 33.9796 37.0175C33.9079 36.963 33.8241 36.9266 33.7353 36.9115C33.1984 36.8739 32.6583 36.8958 32.004 36.8958V44.197C32.004 45.8282 32.353 46.1382 34.0907 45.9863C34.1189 45.8298 34.1533 45.6482 34.1815 45.4698C34.2786 44.8268 34.5924 44.2363 35.071 43.7962C35.5496 43.356 36.1642 43.0926 36.813 43.0496C37.9542 42.9995 39.0985 43.0214 40.2429 43.0214C45.0237 43.0214 49.8062 43.0715 54.587 42.9979C56.9352 42.9619 58.1453 44.5806 58.0091 46.4184C57.9793 46.8317 58.0091 47.2497 58.0091 47.6708C57.995 49.6761 56.7896 50.8893 54.7733 50.8924C50.448 50.9018 46.1242 50.8924 41.7989 50.8924H37.6161C35.4761 50.8924 34.4993 50.0878 34.0797 47.8946H33.3847C31.3292 47.8758 30.1379 46.6986 30.1239 44.6338C30.1082 42.2637 30.1239 39.8936 30.1239 37.5236C30.1239 37.3404 30.1035 37.1573 30.091 36.9334H27.9933C27.9933 37.8069 28.0277 38.6726 27.9823 39.5336C27.9542 40.0846 27.9103 40.6732 27.6974 41.1679C27.1824 42.3623 26.1649 42.8899 24.9 42.8899C19.6824 42.9024 14.4632 42.9103 9.24555 42.8899C7.30596 42.8821 6.12718 41.6376 6.11466 39.687C6.10631 37.1938 6.10631 34.699 6.11466 32.2026C6.11466 30.2787 7.27309 29.0389 9.19232 29.0263C14.4324 28.994 19.6714 28.994 24.9094 29.0263C26.8192 29.0373 27.9432 30.227 27.9839 32.1322C28.0011 32.9149 28.0074 33.7117 27.9839 34.5007C27.9698 34.9171 28.1185 35.0517 28.5224 35.0298C29.0202 34.986 29.5165 35.0079 30.1207 35.0079ZM16.971 41.0114H24.5775C25.7766 41.0114 26.1148 40.6811 26.1163 39.5101C26.1163 37.1181 26.1163 34.7272 26.1163 32.3373C26.1163 31.2133 25.7844 30.8736 24.673 30.872C19.5999 30.872 14.5268 30.872 9.45375 30.872C8.35794 30.872 7.99789 31.2399 7.99632 32.3341C7.99632 34.7052 7.99632 37.0758 7.99632 39.4459C7.99632 40.6654 8.33759 41.0114 9.54768 41.0114H16.971ZM46.0882 44.8843H43.845C41.6831 44.8843 39.5212 44.8843 37.3593 44.8843C36.3653 44.8843 36.024 45.2381 36.0084 46.2415C36.0084 46.636 36.0084 47.0242 36.0084 47.425C36.0084 48.6914 36.3214 49.0092 37.591 49.0092H54.5479C54.6731 49.0092 54.7984 49.0092 54.922 49.0092C55.7048 48.9591 56.093 48.574 56.1274 47.7897C56.1415 47.4766 56.1274 47.1636 56.1274 46.8505C56.1274 45.044 55.9709 44.8796 54.1925 44.8796L46.0882 44.8843ZM46.0569 26.9944C48.9248 26.9944 51.7948 26.9944 54.6669 26.9944C55.7799 26.9944 56.1274 26.6437 56.1337 25.5511C56.1337 25.2176 56.1337 24.8857 56.1337 24.5523C56.1337 23.1559 55.8456 22.8648 54.4571 22.8648H37.6818C37.4729 22.857 37.2638 22.8628 37.0556 22.882C36.3888 22.9696 36.0522 23.314 36.0162 23.9778C35.9896 24.4756 36.0021 24.975 36.0037 25.4744C36.0037 26.6829 36.3167 26.9897 37.5127 26.9913C40.3619 26.9965 43.2104 26.9975 46.0585 26.9944H46.0569ZM46.0303 38.0073H49.6465C51.3513 38.0073 53.056 38.0167 54.7592 38.0073C55.7376 37.9995 56.1149 37.6097 56.129 36.6422C56.129 36.2681 56.129 35.8939 56.129 35.5198C56.129 34.172 55.8378 33.8823 54.479 33.8823H37.6458C37.4595 33.8823 37.2717 33.8823 37.0854 33.8949C36.4122 33.9575 36.0631 34.2925 36.0224 34.9609C35.9911 35.4572 36.0068 35.9566 36.0068 36.4559C36.0068 37.6958 36.3199 38.0089 37.5534 38.0104C40.3827 38.0104 43.2089 38.0094 46.0319 38.0073H46.0303Z" fill="#7f00b2"/>
<path d="M34.0658 12.8647H15.5498C14.5855 12.8647 14.1409 12.5688 14.1315 11.9411C14.1221 11.3133 14.6011 10.9924 15.5404 10.9924H52.5756C52.6586 10.9924 52.7416 10.9924 52.8245 10.9924C53.5572 11.0143 53.9908 11.3634 53.9939 11.9317C53.9971 12.5 53.565 12.86 52.8324 12.86C48.6965 12.86 44.5611 12.86 40.4262 12.86L34.0658 12.8647Z" fill="#7f00b2"/>
<path d="M58.0574 12.8555C57.7052 12.8555 57.353 12.8758 57.0039 12.8555C56.7823 12.8564 56.5692 12.7706 56.4101 12.6164C56.251 12.4623 56.1584 12.252 56.1523 12.0305C56.1022 11.5029 56.3777 11.1006 56.8943 11.0584C57.6758 10.9949 58.4611 10.9949 59.2425 11.0584C59.7325 11.0975 60.0064 11.4904 59.9814 11.9788C59.9835 12.0939 59.9625 12.2083 59.9197 12.3152C59.8769 12.4221 59.8131 12.5193 59.7322 12.6011C59.6512 12.683 59.5546 12.7478 59.4482 12.7918C59.3418 12.8357 59.2277 12.8579 59.1126 12.8571C58.7603 12.8743 58.4081 12.8555 58.0574 12.8555Z" fill="#7f00b2"/>
<path d="M5.98312 12.018C5.96445 12.2622 5.84986 12.4891 5.66438 12.6491C5.47891 12.8091 5.23764 12.8891 4.99332 12.8718C4.749 12.8544 4.52149 12.741 4.36053 12.5564C4.19956 12.3717 4.11824 12.1309 4.13433 11.8865C4.15663 11.6348 4.27764 11.4021 4.47094 11.2393C4.66424 11.0765 4.9141 10.9968 5.16595 11.0177C5.40426 11.0483 5.62178 11.169 5.77377 11.3551C5.92577 11.5411 6.00069 11.7784 5.98312 12.018Z" fill="#7f00b2"/>
<path d="M8.98248 11.9335C8.98767 12.1784 8.89533 12.4154 8.72579 12.5923C8.55625 12.7692 8.32339 12.8715 8.07843 12.8767C7.83348 12.8818 7.59649 12.7895 7.41961 12.62C7.24273 12.4504 7.14044 12.2176 7.13525 11.9726C7.13557 11.7213 7.23385 11.4799 7.40923 11.2999C7.5846 11.1198 7.82326 11.0152 8.07452 11.0083C8.31574 11.0163 8.54462 11.1169 8.71368 11.2892C8.88273 11.4614 8.97899 11.6921 8.98248 11.9335Z" fill="#7f00b2"/>
<path d="M11.9801 11.9552C11.9748 12.1958 11.8755 12.4247 11.7034 12.593C11.5314 12.7612 11.3003 12.8554 11.0597 12.8553C10.8183 12.8527 10.5872 12.7572 10.4144 12.5887C10.2415 12.4203 10.1402 12.1917 10.1313 11.9505C10.1391 11.6995 10.2439 11.4613 10.4238 11.2861C10.6037 11.1109 10.8445 11.0123 11.0957 11.0112C11.336 11.0253 11.5617 11.131 11.7263 11.3067C11.8909 11.4823 11.9817 11.7145 11.9801 11.9552Z" fill="#7f00b2"/>
</g>
<defs>
<clipPath id="clip0_416_510">
<rect width="64" height="64" fill="white"/>
</clipPath>
</defs>
</svg>
