<svg width="99" height="36" viewBox="0 0 99 36" fill="none" xmlns="http://www.w3.org/2000/svg">
<path fill-rule="evenodd" clip-rule="evenodd" d="M8.18363 0.950775C3.66393 0.950775 0 4.61471 0 9.1344V26.8656C0 31.3853 3.66394 35.0492 8.18363 35.0492H25.9148C30.4345 35.0492 34.0984 31.3853 34.0984 26.8656V9.1344C34.0984 4.61471 30.4345 0.950775 25.9148 0.950775H8.18363ZM7.05451 30.5H25.5356V25.7216H15.3793L25.5356 6.62443H7.05451V11.4029H17.2441L7.05451 30.5Z" fill="#7F00B2"/>
<path d="M43.8856 24.5102C44.0277 24.5546 44.1698 24.5857 44.3118 24.6035C44.4539 24.6124 44.596 24.6168 44.7381 24.6168C45.0933 24.6168 45.4351 24.568 45.7637 24.4703C46.0922 24.3726 46.3986 24.235 46.6828 24.0574C46.9758 23.8709 47.2333 23.6489 47.4553 23.3914C47.6862 23.125 47.8726 22.832 48.0147 22.5123L50.6787 25.1895C50.3412 25.6691 49.9505 26.0997 49.5065 26.4816C49.0714 26.8634 48.5964 27.1875 48.0813 27.4539C47.5752 27.7203 47.0379 27.9201 46.4696 28.0533C45.9102 28.1954 45.333 28.2664 44.7381 28.2664C43.7347 28.2664 42.789 28.0799 41.901 27.707C41.0219 27.334 40.2493 26.8145 39.5834 26.1486C38.9262 25.4826 38.4068 24.6923 38.0249 23.7777C37.6431 22.8542 37.4522 21.8419 37.4522 20.7408C37.4522 19.613 37.6431 18.583 38.0249 17.6506C38.4068 16.7182 38.9262 15.9235 39.5834 15.2664C40.2493 14.6093 41.0219 14.0987 41.901 13.7346C42.789 13.3705 43.7347 13.1885 44.7381 13.1885C45.333 13.1885 45.9146 13.2595 46.483 13.4016C47.0513 13.5437 47.5885 13.7479 48.0946 14.0143C48.6097 14.2807 49.0892 14.6093 49.5332 15C49.9772 15.3818 50.3679 15.8125 50.7053 16.292L43.8856 24.5102ZM45.7504 17.0112C45.5817 16.9491 45.4129 16.9091 45.2442 16.8914C45.0844 16.8736 44.9157 16.8647 44.7381 16.8647C44.2408 16.8647 43.7702 16.958 43.3262 17.1444C42.8911 17.322 42.5092 17.5796 42.1807 17.917C41.861 18.2544 41.6079 18.6629 41.4215 19.1424C41.235 19.613 41.1418 20.1458 41.1418 20.7408C41.1418 20.874 41.1462 21.0249 41.1551 21.1936C41.1728 21.3623 41.195 21.5355 41.2217 21.7131C41.2572 21.8818 41.2972 22.0461 41.3416 22.2059C41.386 22.3658 41.4437 22.5078 41.5147 22.6322L45.7504 17.0112ZM55.9799 33.4344V29.7715L58.0045 29.7982C58.3597 29.7982 58.7016 29.7404 59.0301 29.625C59.3587 29.5096 59.6606 29.3497 59.9359 29.1455C60.22 28.9413 60.4686 28.6971 60.6818 28.4129C60.8949 28.1376 61.068 27.8357 61.2012 27.5072C60.8016 27.6759 60.3932 27.8446 59.9758 28.0133C59.5673 28.182 59.1544 28.2664 58.7371 28.2664C57.858 28.2664 57.0322 28.111 56.2596 27.8002C55.4871 27.4894 54.8078 27.0499 54.2217 26.4816C53.6445 25.9044 53.1872 25.2073 52.8498 24.3904C52.5212 23.5645 52.3569 22.641 52.3569 21.6199V13.7346H55.9799V21.6199C55.9799 22.126 56.0509 22.57 56.193 22.9518C56.344 23.3248 56.5438 23.64 56.7924 23.8975C57.041 24.1462 57.3296 24.3326 57.6582 24.457C57.9956 24.5813 58.3553 24.6434 58.7371 24.6434C59.11 24.6434 59.4608 24.5591 59.7893 24.3904C60.1268 24.2128 60.4198 23.9819 60.6684 23.6977C60.9171 23.4136 61.1124 23.0939 61.2545 22.7387C61.3966 22.3746 61.4676 22.0017 61.4676 21.6199V13.7346H65.1305V26.2018C65.1217 27.2053 64.9263 28.1465 64.5445 29.0256C64.1626 29.9047 63.6387 30.6728 62.9728 31.3299C62.3156 31.987 61.5475 32.5065 60.6684 32.8883C59.7893 33.2702 58.8481 33.4611 57.8447 33.4611L55.9799 33.4344ZM81.7269 28H80.8478L79.4359 26.042C79.0896 26.3528 78.7211 26.6458 78.3304 26.9211C77.9485 27.1875 77.5445 27.4228 77.1183 27.627C76.692 27.8224 76.2525 27.9778 75.7996 28.0932C75.3556 28.2087 74.9028 28.2664 74.441 28.2664C73.4376 28.2664 72.4919 28.0977 71.6039 27.7602C70.7248 27.4228 69.9523 26.9344 69.2863 26.2951C68.6292 25.6469 68.1097 24.8565 67.7279 23.9242C67.3461 22.9918 67.1551 21.9307 67.1551 20.7408C67.1551 19.6308 67.3461 18.614 67.7279 17.6905C68.1097 16.7582 68.6292 15.959 69.2863 15.293C69.9523 14.627 70.7248 14.112 71.6039 13.7479C72.4919 13.375 73.4376 13.1885 74.441 13.1885C74.9028 13.1885 75.3601 13.2462 75.8129 13.3616C76.2658 13.4771 76.7054 13.6369 77.1316 13.8412C77.5578 14.0454 77.9619 14.2851 78.3437 14.5604C78.7344 14.8357 79.0985 15.1332 79.4359 15.4528L80.8478 13.7612H81.7269V28ZM78.064 20.7408C78.064 20.2435 77.9663 19.764 77.7709 19.3022C77.5845 18.8316 77.327 18.4187 76.9984 18.0635C76.6698 17.6994 76.2836 17.4108 75.8396 17.1977C75.4045 16.9757 74.9383 16.8647 74.441 16.8647C73.9437 16.8647 73.4731 16.9491 73.0291 17.1178C72.594 17.2865 72.2122 17.5352 71.8836 17.8637C71.564 18.1923 71.3109 18.6007 71.1244 19.0891C70.9379 19.5686 70.8447 20.1192 70.8447 20.7408C70.8447 21.3623 70.9379 21.9173 71.1244 22.4057C71.3109 22.8852 71.564 23.2893 71.8836 23.6178C72.2122 23.9464 72.594 24.195 73.0291 24.3637C73.4731 24.5324 73.9437 24.6168 74.441 24.6168C74.9383 24.6168 75.4045 24.5102 75.8396 24.2971C76.2836 24.0751 76.6698 23.7865 76.9984 23.4313C77.327 23.0673 77.5845 22.6544 77.7709 22.1926C77.9663 21.722 78.064 21.238 78.064 20.7408ZM88.147 28H84.5107V8.0604H88.147V14.3606C88.5821 14.0321 89.0305 13.8012 89.4923 13.668C89.954 13.5259 90.4247 13.4549 90.9042 13.4549C91.7833 13.4549 92.6091 13.6236 93.3816 13.961C94.1542 14.2896 94.8246 14.7469 95.3929 15.333C95.9701 15.9101 96.423 16.5895 96.7515 17.3709C97.089 18.1434 97.2577 18.9692 97.2577 19.8483V28H93.5948V19.8483H93.6214C93.6214 19.4754 93.5504 19.1246 93.4083 18.7961C93.2662 18.4587 93.0708 18.1656 92.8222 17.917C92.5736 17.6683 92.285 17.473 91.9564 17.3309C91.6279 17.1888 91.2771 17.1178 90.9042 17.1178C90.5223 17.1178 90.1627 17.1888 89.8253 17.3309C89.4878 17.473 89.1948 17.6683 88.9462 17.917C88.6975 18.1656 88.5022 18.4587 88.3601 18.7961C88.218 19.1246 88.147 19.4754 88.147 19.8483V28Z" fill="white"/>
</svg>
